<svg width="444" height="167" viewBox="0 0 444 167" fill="none" xmlns="http://www.w3.org/2000/svg">
<path d="M4.54545 55.1364V38.9091H81V55.1364H52.5V132H33.0455V55.1364H4.54545ZM98.2614 132H77.1705L109.307 38.9091H134.67L166.761 132H145.67L122.352 60.1818H121.625L98.2614 132ZM96.9432 95.4091H146.761V110.773H96.9432V95.4091ZM177.966 132V38.9091H197.648V79.9545H198.875L232.375 38.9091H255.966L221.42 80.5909L256.375 132H232.83L207.33 93.7273L197.648 105.545V132H177.966ZM266.216 132V38.9091H328.943V55.1364H285.898V77.3182H325.716V93.5455H285.898V115.773H329.125V132H266.216Z" fill="black"/>
<path d="M349.814 123.426L352.277 109.46L390.237 84.9984C393.486 82.802 396.24 80.7951 398.499 78.978C400.788 77.1661 402.606 75.3174 403.954 73.4319C405.307 71.5166 406.197 69.3503 406.623 66.933C407.097 64.2472 406.893 61.8265 406.011 59.671C405.135 57.4856 403.73 55.6839 401.795 54.2658C399.866 52.8178 397.558 51.8571 394.872 51.3835C392.067 50.8888 389.52 51.0244 387.231 51.79C384.942 52.5557 383.044 53.898 381.536 55.8169C380.029 57.7357 379.017 60.1575 378.501 63.082L360.103 59.838C361.161 53.8396 363.437 48.8715 366.931 44.9336C370.426 40.9958 374.833 38.2497 380.154 36.6954C385.474 35.1411 391.328 34.927 397.714 36.0531C404.279 37.2108 409.789 39.3823 414.243 42.5678C418.732 45.7286 421.974 49.5927 423.969 54.16C425.963 58.7273 426.495 63.652 425.564 68.9342C424.953 72.3959 423.664 75.6919 421.697 78.822C419.759 81.9575 416.697 85.2791 412.509 88.787C408.326 92.265 402.581 96.3138 395.274 100.933L379.577 111.689L379.467 112.316L417.964 119.104L415.169 134.95L349.814 123.426Z" fill="black"/>
</svg>
